<svg xmlns="http://www.w3.org/2000/svg" xmlns:xlink="http://www.w3.org/1999/xlink" version="1.1" id="Layer_1" x="0px" y="0px" width="100px" height="61.27px" viewBox="5.0 -6.127 100.0 82.7145" enable-background="new 0 0 100 61.27" xml:space="preserve">
<g>
	<path fill="#ffffff" d="M67.034,50.906c-0.679-2.227-0.749-3.896-0.76-3.896c-0.03-0.535-0.485-0.943-1.02-0.918   c-0.536,0.028-0.947,0.482-0.92,1.016h-0.003c0.025,0.096,0.326,7.473,5.668,12.203c0.187,0.162,0.414,0.243,0.643,0.243   c0.269,0,0.538-0.108,0.729-0.328c0.353-0.405,0.314-1.018-0.089-1.371C68.982,55.846,67.71,53.131,67.034,50.906z M64.374,55.555   c-0.581-1.358-0.759-2.428-0.768-2.419c-0.093-0.53-0.597-0.884-1.127-0.79c-0.527,0.093-0.879,0.597-0.785,1.126   c0.041,0.08,0.808,4.975,4.564,7.627c0.171,0.115,0.362,0.171,0.553,0.171c0.307,0,0.61-0.147,0.8-0.418   c0.303-0.447,0.19-1.049-0.249-1.35C65.918,58.51,64.953,56.92,64.374,55.555z M98.764,9.984l-0.16-0.098   c-0.005,0-0.845-0.429-2.121-1.185c-1.937-1.124-4.755-2.733-7.458-2.765c-0.364,0-0.732,0.032-1.099,0.11   c-0.524-0.288-1.53-0.828-2.687-1.374c-1.715-0.789-3.613-1.615-5.168-1.648c-0.23,0-0.469,0.02-0.729,0.092   c-0.381,0.104-0.675,0.41-0.811,0.815c-0.128,0.408-0.071,0.856,0.162,1.206c1.231,1.819,3.385,3.498,5.81,3.567   c-0.319,0.358-0.707,0.732-1.142,1.063c-1.276,1.015-2.968,1.83-4.759,1.828c-0.798,0.017-1.913-0.537-3.313-1.595   C71.066,6.864,64.591-0.026,52.615,0c-8.251,0.015-13.989,5.76-18.827,11.164c-2.429,2.718-4.663,5.389-6.853,7.32   c-2.202,1.94-4.285,3.092-6.48,3.092c-4.88,0.002-9.551-1.896-12.99-3.819c-1.716-0.962-3.126-1.918-4.099-2.64   c-0.976-0.726-1.491-1.18-1.494-1.18c-0.5-0.439-1.219-0.342-1.622,0.211c-0.394,0.555-0.317,1.362,0.178,1.812   c0,0,0.004,0.004,0.015,0.013l0,0c0.007,0.002,0.062,0.052,0.16,0.136c1.401,1.209,10.874,9.416,19.849,9.487   c7.536-0.009,13.668-3.336,15.848-4.68c0.802,0.968,2.291,2.668,4.158,4.388c2.831,2.574,6.466,5.287,10.226,5.33   c3.777,0.002,6.505,1.278,12.3,4.873c2.36,1.417,4.63,5.549,6.112,9.335c0.757,1.89,1.343,3.682,1.737,5.001   c0.396,1.317,0.594,2.135,0.596,2.135c0.098,0.387,0.354,0.71,0.696,0.864l3.012,1.323c0.068,0.043,0.137,0.079,0.21,0.115   c0.004,0,0.68,0.291,1.736,0.733l13.05,5.734c0.137,0.059,0.279,0.089,0.423,0.089c0.316,0,0.626-0.146,0.852-0.419   c0.325-0.401,0.398-0.974,0.183-1.452c-0.019-0.041-0.198-0.448-0.511-0.918c-0.339-0.419-0.691-1.134-1.81-1.238   c-0.084,0.027-1.245-0.26-2.534-0.725c-2.721-0.95-6.637-2.568-8.854-3.497l-1.32-0.584c-0.589-1.213-2.307-4.734-4.131-8.372   c-1.127-2.253-2.298-4.554-3.27-6.388c-0.486-0.917-0.924-1.724-1.288-2.356c-0.216-0.362-0.39-0.661-0.561-0.911   c0.029-0.387,0.062-0.938,0.062-1.604c-0.005-1.484-0.137-3.535-0.807-5.544c1.195-0.159,2.924-0.399,4.702-0.701   c1.625-0.271,3.291-0.588,4.667-0.939c0.486-0.122,0.939-0.25,1.343-0.389c0.035,0.76,0.059,1.687,0.059,2.659   c0,1.175-0.041,2.417-0.156,3.449c-0.004,0.07-0.013,0.139-0.02,0.2c-0.214,0.827-0.394,1.48-0.489,1.845   c-0.115,0.115-0.264,0.266-0.428,0.41c-0.172,0.156-0.356,0.304-0.486,0.385c-0.041,0.026-0.076,0.049-0.099,0.058   c-0.594,0.059-1.061,0.616-1.061,1.289c0,0.717,0.521,1.3,1.163,1.3c0.539-0.024,0.845-0.22,1.143-0.397   c0.85-0.557,1.563-1.389,1.604-1.422c0.022-0.029,0.036-0.068,0.059-0.098c0.027-0.038,0.062-0.062,0.083-0.097   c0.04-0.074,0.07-0.152,0.108-0.228c0.003-0.004,0.003-0.006,0.003-0.011c0.361-0.723,0.538-1.537,0.659-2.446   c0.206-0.777,0.438-1.688,0.672-2.639c0.551-2.287,1.113-4.623,1.277-6.179c0.681-0.523,2.024-1.562,3.413-2.723   c0.987-0.829,1.998-1.716,2.822-2.54c0.571-0.604,1.051-1.08,1.408-1.647c0.894-0.065,2.606-0.203,4.333-0.421   c1.25-0.154,2.495-0.347,3.489-0.59c0.501-0.129,0.935-0.261,1.33-0.458c0.201-0.1,0.397-0.211,0.609-0.421   c0.056-0.05,0.111-0.114,0.172-0.196c0.054-0.032,0.112-0.072,0.174-0.118c0.293-0.224,0.846-0.7,0.877-1.683   C99.973,11.095,99.417,10.486,98.764,9.984z M67.943,8.958C67.61,9.38,67,9.455,66.578,9.121C63.397,6.624,58.691,4.53,53.032,4.53   c-3.872-0.011-8.161,2.194-11.577,5.23c-0.186,0.167-0.414,0.248-0.644,0.248c-0.269,0-0.536-0.111-0.727-0.331   c-0.356-0.402-0.32-1.014,0.081-1.366c3.669-3.237,8.269-5.701,12.867-5.72c6.146,0,11.255,2.265,14.744,5.003l0.006,0.001   C68.2,7.927,68.27,8.538,67.943,8.958z M91.233,10.486c-0.636,0-1.154-0.517-1.154-1.157c0-0.637,0.519-1.156,1.154-1.156   c0.638,0,1.156,0.519,1.156,1.156C92.389,9.969,91.873,10.486,91.233,10.486z"/>
</g>
<text x="0.0" y="71.99225" font-size="1" font-weight="bold" font-family="Helvetica Neue, Helvetica, Arial-Unicode, Arial, Sans-serif" fill="#233646">Created by Olivier Guin</text>
<text x="0.0" y="75.05575" font-size="1" font-weight="bold" font-family="Helvetica Neue, Helvetica, Arial-Unicode, Arial, Sans-serif" fill="#233646">from the Noun Project</text></svg>